<svg id="Layer_1" data-name="Layer 1" xmlns="http://www.w3.org/2000/svg" viewBox="0 0 469.64 88.09"><defs><style>.cls-1{fill:#2e2014;}</style></defs><title>sfvm</title><path class="cls-1" d="M17.06,105.12c0-11.09,6.28-19,17.25-19.84v-.12H65.48a19,19,0,0,0,.74-5.67A25,25,0,0,0,64,69.76H37.51c-10.84,0-17.37-7.52-17.37-17.25V42c0-13.92,9.12-21.56,22.55-21.56H73.61v1.6c0,11.46-6.65,19-18.36,19.34H25.56V52.51H45.89c14.29,0,25.75,12.69,25.75,27.1a27.09,27.09,0,0,1-27,27.11H17.06Z" transform="translate(-17.06 -20.48)"/><path class="cls-1" d="M124.86,106.72H82.6v-5.67l18.48-17.74V41.67L82.73,26V20.48h69.85V26l-18.73,15.4H106.5V55.59h43.25V72.84H106.5V83.31l18.36,17.74Z" transform="translate(-17.06 -20.48)"/><path class="cls-1" d="M222.44,42l-19.35,64.68H191.27L171.92,42H157.14V20.48h33.51V42H177.47l11.21,37.57h17L216.89,42H203.71V20.48h33.51V42Z" transform="translate(-17.06 -20.48)"/><path class="cls-1" d="M283.67,106.72H241.41v-5.67l18.48-17.74V43.89L241.41,26.14V20.48h42.26v5.66L268,41.3l8.62,13.55H303.5l8.63-13.55L296.36,26.14V20.48h42.25v5.66L320.26,43.89V83.31l18.35,17.74v5.67H296.36v-5.67l18.48-17.74V46.6L293.77,81.34h-7.39L265.31,46.6V83.31l18.36,17.74Z" transform="translate(-17.06 -20.48)"/><path class="cls-1" d="M359.93,108.56a11.76,11.76,0,0,1-12.07-12,12,12,0,1,1,24,0A11.73,11.73,0,0,1,359.93,108.56Z" transform="translate(-17.06 -20.48)"/><path class="cls-1" d="M381,106.72V87h14.16V42h-14V22.33h19.46V87h13.93v19.72Z" transform="translate(-17.06 -20.48)"/><path class="cls-1" d="M467.24,94.64c-3.95,8.38-13.8,13.92-23.53,13.92-12.2,0-19.1-8.13-19.1-17.74,0-10.59,6.41-18,17.86-18h24.77V64.46H426V45.12h26.62c14.66,0,20.08,7.76,20.08,20.94V87h14v19.72H467.24Zm0-7.64V77.89H443.58c-3.2,0-7.39,1-9.49,3-1.6,1.48-3.2,3.82-3.2,6.16Z" transform="translate(-17.06 -20.48)"/></svg>